# MagicaVoxel @ Ephtracy

# material
mtllib Robot.mtl
usemtl palette

# normals
vn -1 0 0
vn 1 0 0
vn 0 0 1
vn 0 0 -1
vn 0 -1 0
vn 0 1 0

# texcoords
vt 0.283203 0.5
vt 0.974609 0.5
vt 0.978516 0.5

# verts
v -36 41 15
v -36 41 1
v -36 57 15
v -36 57 1
v -36 59 15
v -36 59 1
v -36 73 15
v -36 73 1
v -36 75 15
v -36 75 1
v -36 93 15
v -36 93 1
v -32 57 11
v -32 57 4
v -32 59 11
v -32 59 4
v -32 73 11
v -32 73 4
v -32 75 11
v -32 75 4
v -32 93 15
v -32 93 1
v -32 95 15
v -32 95 1
v -25 0 19
v -25 0 3
v -25 4 19
v -25 4 3
v -23 4 13
v -23 4 3
v -23 24 13
v -23 24 3
v -23 26 13
v -23 26 3
v -23 44 13
v -23 44 3
v -23 46 21
v -23 46 19
v -23 46 -3
v -23 46 -5
v -23 94 19
v -23 94 -3
v -23 96 21
v -23 96 -5
v -21 24 11
v -21 24 5
v -21 26 11
v -21 26 5
v -21 48 19
v -21 48 -3
v -21 83 11
v -21 83 4
v -21 91 11
v -21 91 4
v -21 94 19
v -21 94 -3
v -19 44 13
v -19 44 3
v -19 48 13
v -19 48 3
v -9 98 19
v -9 98 -1
v -9 116 19
v -9 116 -1
v -7 96 17
v -7 96 1
v -7 98 17
v -7 98 1
v 3 0 19
v 3 0 3
v 3 4 19
v 3 4 3
v 5 4 13
v 5 4 3
v 5 24 13
v 5 24 3
v 5 26 13
v 5 26 3
v 5 44 13
v 5 44 3
v 7 24 11
v 7 24 5
v 7 26 11
v 7 26 5
v 21 46 15
v 21 46 1
v 21 57 15
v 21 57 11
v 21 57 4
v 21 57 1
v 21 59 15
v 21 59 11
v 21 59 4
v 21 59 1
v 21 73 15
v 21 73 11
v 21 73 4
v 21 73 1
v 21 75 15
v 21 75 11
v 21 75 4
v 21 75 1
v 21 83 11
v 21 83 4
v 21 91 11
v 21 91 4
v 21 95 15
v 21 95 1
v 25 41 15
v 25 41 1
v 25 46 15
v 25 46 1
v -31 41 15
v -31 41 1
v -31 46 15
v -31 46 1
v -27 46 15
v -27 46 1
v -27 57 15
v -27 57 11
v -27 57 4
v -27 57 1
v -27 59 15
v -27 59 11
v -27 59 4
v -27 59 1
v -27 73 15
v -27 73 11
v -27 73 4
v -27 73 1
v -27 75 15
v -27 75 11
v -27 75 4
v -27 75 1
v -27 83 11
v -27 83 4
v -27 91 11
v -27 91 4
v -27 95 15
v -27 95 1
v -15 24 11
v -15 24 5
v -15 26 11
v -15 26 5
v -13 4 13
v -13 4 3
v -13 24 13
v -13 24 3
v -13 26 13
v -13 26 3
v -13 44 13
v -13 44 3
v -11 0 19
v -11 0 3
v -11 4 19
v -11 4 3
v 1 96 17
v 1 96 1
v 1 98 17
v 1 98 1
v 3 98 19
v 3 98 -1
v 3 116 19
v 3 116 -1
v 11 44 13
v 11 44 3
v 11 48 13
v 11 48 3
v 13 24 11
v 13 24 5
v 13 26 11
v 13 26 5
v 15 4 13
v 15 4 3
v 15 24 13
v 15 24 3
v 15 26 13
v 15 26 3
v 15 44 13
v 15 44 3
v 15 48 19
v 15 48 -3
v 15 83 11
v 15 83 4
v 15 91 11
v 15 91 4
v 15 94 19
v 15 94 -3
v 17 0 19
v 17 0 3
v 17 4 19
v 17 4 3
v 17 46 21
v 17 46 19
v 17 46 -3
v 17 46 -5
v 17 94 19
v 17 94 -3
v 17 96 21
v 17 96 -5
v 26 57 11
v 26 57 4
v 26 59 11
v 26 59 4
v 26 73 11
v 26 73 4
v 26 75 11
v 26 75 4
v 26 93 15
v 26 93 1
v 26 95 15
v 26 95 1
v 30 41 15
v 30 41 1
v 30 57 15
v 30 57 1
v 30 59 15
v 30 59 1
v 30 73 15
v 30 73 1
v 30 75 15
v 30 75 1
v 30 93 15
v 30 93 1
v -23 46 21
v -23 96 21
v 17 46 21
v 17 96 21
v -25 0 19
v -25 4 19
v -11 0 19
v -11 4 19
v -9 98 19
v -9 116 19
v -5 98 19
v -5 114 19
v -1 98 19
v -1 114 19
v 3 0 19
v 3 4 19
v 3 98 19
v 3 116 19
v 17 0 19
v 17 4 19
v -7 96 17
v -7 98 17
v -5 98 17
v -1 98 17
v 1 96 17
v 1 98 17
v -36 41 15
v -36 57 15
v -36 59 15
v -36 73 15
v -36 75 15
v -36 93 15
v -32 93 15
v -32 95 15
v -31 41 15
v -31 46 15
v -27 46 15
v -27 57 15
v -27 59 15
v -27 73 15
v -27 75 15
v -27 95 15
v 21 46 15
v 21 57 15
v 21 59 15
v 21 73 15
v 21 75 15
v 21 95 15
v 25 41 15
v 25 46 15
v 26 93 15
v 26 95 15
v 30 41 15
v 30 57 15
v 30 59 15
v 30 73 15
v 30 75 15
v 30 93 15
v -23 4 13
v -23 24 13
v -23 26 13
v -23 44 13
v -19 44 13
v -19 48 13
v -13 4 13
v -13 24 13
v -13 26 13
v -13 44 13
v 5 4 13
v 5 24 13
v 5 26 13
v 5 44 13
v 11 44 13
v 11 48 13
v 15 4 13
v 15 24 13
v 15 26 13
v 15 44 13
v -32 57 11
v -32 59 11
v -32 73 11
v -32 75 11
v -27 57 11
v -27 59 11
v -27 73 11
v -27 75 11
v -27 83 11
v -27 91 11
v -21 24 11
v -21 26 11
v -21 83 11
v -21 91 11
v -15 24 11
v -15 26 11
v 7 24 11
v 7 26 11
v 13 24 11
v 13 26 11
v 15 83 11
v 15 91 11
v 21 57 11
v 21 59 11
v 21 73 11
v 21 75 11
v 21 83 11
v 21 91 11
v 26 57 11
v 26 59 11
v 26 73 11
v 26 75 11
v -23 46 -3
v -23 94 -3
v -21 48 -3
v -21 94 -3
v 15 48 -3
v 15 94 -3
v 17 46 -3
v 17 94 -3
v -23 46 19
v -23 94 19
v -21 48 19
v -21 94 19
v 15 48 19
v 15 94 19
v 17 46 19
v 17 94 19
v -21 24 5
v -21 26 5
v -15 24 5
v -15 26 5
v 7 24 5
v 7 26 5
v 13 24 5
v 13 26 5
v -32 57 4
v -32 59 4
v -32 73 4
v -32 75 4
v -27 57 4
v -27 59 4
v -27 73 4
v -27 75 4
v -27 83 4
v -27 91 4
v -21 83 4
v -21 91 4
v 15 83 4
v 15 91 4
v 21 57 4
v 21 59 4
v 21 73 4
v 21 75 4
v 21 83 4
v 21 91 4
v 26 57 4
v 26 59 4
v 26 73 4
v 26 75 4
v -25 0 3
v -25 4 3
v -23 4 3
v -23 24 3
v -23 26 3
v -23 44 3
v -19 44 3
v -19 48 3
v -13 4 3
v -13 24 3
v -13 26 3
v -13 44 3
v -11 0 3
v -11 4 3
v 3 0 3
v 3 4 3
v 5 4 3
v 5 24 3
v 5 26 3
v 5 44 3
v 11 44 3
v 11 48 3
v 15 4 3
v 15 24 3
v 15 26 3
v 15 44 3
v 17 0 3
v 17 4 3
v -36 41 1
v -36 57 1
v -36 59 1
v -36 73 1
v -36 75 1
v -36 93 1
v -32 93 1
v -32 95 1
v -31 41 1
v -31 46 1
v -27 46 1
v -27 57 1
v -27 59 1
v -27 73 1
v -27 75 1
v -27 95 1
v -7 96 1
v -7 98 1
v 1 96 1
v 1 98 1
v 21 46 1
v 21 57 1
v 21 59 1
v 21 73 1
v 21 75 1
v 21 95 1
v 25 41 1
v 25 46 1
v 26 93 1
v 26 95 1
v 30 41 1
v 30 57 1
v 30 59 1
v 30 73 1
v 30 75 1
v 30 93 1
v -9 98 -1
v -9 116 -1
v 3 98 -1
v 3 116 -1
v -23 46 -5
v -23 96 -5
v 17 46 -5
v 17 96 -5
v -25 0 19
v -11 0 19
v 3 0 19
v 17 0 19
v -25 0 3
v -11 0 3
v 3 0 3
v 17 0 3
v -23 26 13
v -13 26 13
v 5 26 13
v 15 26 13
v -21 26 11
v -15 26 11
v 7 26 11
v 13 26 11
v -21 26 5
v -15 26 5
v 7 26 5
v 13 26 5
v -23 26 3
v -13 26 3
v 5 26 3
v 15 26 3
v -36 41 15
v -31 41 15
v 25 41 15
v 30 41 15
v -36 41 1
v -31 41 1
v 25 41 1
v 30 41 1
v -13 44 13
v 5 44 13
v -13 44 3
v 5 44 3
v -23 46 21
v 17 46 21
v -23 46 19
v 17 46 19
v -31 46 15
v -27 46 15
v 21 46 15
v 25 46 15
v -31 46 1
v -27 46 1
v 21 46 1
v 25 46 1
v -23 46 -3
v 17 46 -3
v -23 46 -5
v 17 46 -5
v -21 48 19
v 15 48 19
v -19 48 13
v 11 48 13
v -19 48 3
v 11 48 3
v -21 48 -3
v 15 48 -3
v -36 59 15
v -27 59 15
v 21 59 15
v 30 59 15
v -32 59 11
v -27 59 11
v 21 59 11
v 26 59 11
v -32 59 4
v -27 59 4
v 21 59 4
v 26 59 4
v -36 59 1
v -27 59 1
v 21 59 1
v 30 59 1
v -36 75 15
v -27 75 15
v 21 75 15
v 30 75 15
v -32 75 11
v -27 75 11
v 21 75 11
v 26 75 11
v -32 75 4
v -27 75 4
v 21 75 4
v 26 75 4
v -36 75 1
v -27 75 1
v 21 75 1
v 30 75 1
v -27 83 11
v -21 83 11
v 15 83 11
v 21 83 11
v -27 83 4
v -21 83 4
v 15 83 4
v 21 83 4
v -23 94 19
v -21 94 19
v 15 94 19
v 17 94 19
v -23 94 -3
v -21 94 -3
v 15 94 -3
v 17 94 -3
v -9 98 19
v -5 98 19
v -1 98 19
v 3 98 19
v -7 98 17
v -5 98 17
v -1 98 17
v 1 98 17
v -7 98 1
v 1 98 1
v -9 98 -1
v 3 98 -1
v -25 4 19
v -11 4 19
v 3 4 19
v 17 4 19
v -23 4 13
v -13 4 13
v 5 4 13
v 15 4 13
v -25 4 3
v -23 4 3
v -13 4 3
v -11 4 3
v 3 4 3
v 5 4 3
v 15 4 3
v 17 4 3
v -23 24 13
v -13 24 13
v 5 24 13
v 15 24 13
v -21 24 11
v -15 24 11
v 7 24 11
v 13 24 11
v -21 24 5
v -15 24 5
v 7 24 5
v 13 24 5
v -23 24 3
v -13 24 3
v 5 24 3
v 15 24 3
v -23 44 13
v -19 44 13
v 11 44 13
v 15 44 13
v -23 44 3
v -19 44 3
v 11 44 3
v 15 44 3
v -36 57 15
v -27 57 15
v 21 57 15
v 30 57 15
v -32 57 11
v -27 57 11
v 21 57 11
v 26 57 11
v -32 57 4
v -27 57 4
v 21 57 4
v 26 57 4
v -36 57 1
v -27 57 1
v 21 57 1
v 30 57 1
v -36 73 15
v -27 73 15
v 21 73 15
v 30 73 15
v -32 73 11
v -27 73 11
v 21 73 11
v 26 73 11
v -32 73 4
v -27 73 4
v 21 73 4
v 26 73 4
v -36 73 1
v -27 73 1
v 21 73 1
v 30 73 1
v -27 91 11
v -21 91 11
v 15 91 11
v 21 91 11
v -27 91 4
v -21 91 4
v 15 91 4
v 21 91 4
v -36 93 15
v -32 93 15
v 26 93 15
v 30 93 15
v -36 93 1
v -32 93 1
v 26 93 1
v 30 93 1
v -32 95 15
v -27 95 15
v 21 95 15
v 26 95 15
v -32 95 1
v -27 95 1
v 21 95 1
v 26 95 1
v -23 96 21
v 17 96 21
v -7 96 17
v 1 96 17
v -7 96 1
v 1 96 1
v -23 96 -5
v 17 96 -5
v -9 116 19
v 3 116 19
v -9 116 -1
v 3 116 -1

# faces
f 3/3/1 2/3/1 1/3/1
f 4/3/1 2/3/1 3/3/1
f 7/3/1 6/3/1 5/3/1
f 8/3/1 6/3/1 7/3/1
f 11/3/1 10/3/1 9/3/1
f 12/3/1 10/3/1 11/3/1
f 15/3/1 14/3/1 13/3/1
f 16/3/1 14/3/1 15/3/1
f 19/3/1 18/3/1 17/3/1
f 20/3/1 18/3/1 19/3/1
f 23/3/1 22/3/1 21/3/1
f 24/3/1 22/3/1 23/3/1
f 27/2/1 26/2/1 25/2/1
f 28/2/1 26/2/1 27/2/1
f 31/2/1 30/2/1 29/2/1
f 32/2/1 30/2/1 31/2/1
f 35/2/1 34/2/1 33/2/1
f 36/2/1 34/2/1 35/2/1
f 41/2/1 38/2/1 37/2/1
f 42/2/1 40/2/1 39/2/1
f 43/2/1 41/2/1 37/2/1
f 43/2/1 42/2/1 41/2/1
f 44/2/1 40/2/1 42/2/1
f 44/2/1 42/2/1 43/2/1
f 47/2/1 46/2/1 45/2/1
f 48/2/1 46/2/1 47/2/1
f 51/2/1 50/2/1 49/2/1
f 52/2/1 50/2/1 51/2/1
f 53/2/1 51/2/1 49/2/1
f 54/2/1 50/2/1 52/2/1
f 55/2/1 53/2/1 49/2/1
f 55/2/1 54/2/1 53/2/1
f 56/2/1 50/2/1 54/2/1
f 56/2/1 54/2/1 55/2/1
f 59/2/1 58/2/1 57/2/1
f 60/2/1 58/2/1 59/2/1
f 63/2/1 62/2/1 61/2/1
f 64/2/1 62/2/1 63/2/1
f 67/2/1 66/2/1 65/2/1
f 68/2/1 66/2/1 67/2/1
f 71/2/1 70/2/1 69/2/1
f 72/2/1 70/2/1 71/2/1
f 75/2/1 74/2/1 73/2/1
f 76/2/1 74/2/1 75/2/1
f 79/2/1 78/2/1 77/2/1
f 80/2/1 78/2/1 79/2/1
f 83/2/1 82/2/1 81/2/1
f 84/2/1 82/2/1 83/2/1
f 87/3/1 86/3/1 85/3/1
f 88/3/1 86/3/1 87/3/1
f 89/3/1 86/3/1 88/3/1
f 90/3/1 86/3/1 89/3/1
f 92/3/1 89/3/1 88/3/1
f 93/3/1 89/3/1 92/3/1
f 95/3/1 92/3/1 91/3/1
f 95/3/1 94/3/1 93/3/1
f 95/3/1 93/3/1 92/3/1
f 96/3/1 94/3/1 95/3/1
f 97/3/1 94/3/1 96/3/1
f 98/3/1 94/3/1 97/3/1
f 100/3/1 97/3/1 96/3/1
f 101/3/1 97/3/1 100/3/1
f 103/3/1 100/3/1 99/3/1
f 103/3/1 102/3/1 101/3/1
f 103/3/1 101/3/1 100/3/1
f 104/3/1 102/3/1 103/3/1
f 105/3/1 103/3/1 99/3/1
f 106/3/1 102/3/1 104/3/1
f 107/3/1 105/3/1 99/3/1
f 107/3/1 106/3/1 105/3/1
f 108/3/1 102/3/1 106/3/1
f 108/3/1 106/3/1 107/3/1
f 111/3/1 110/3/1 109/3/1
f 112/3/1 110/3/1 111/3/1
f 113/3/2 114/3/2 115/3/2
f 115/3/2 114/3/2 116/3/2
f 117/3/2 118/3/2 119/3/2
f 119/3/2 118/3/2 120/3/2
f 120/3/2 118/3/2 121/3/2
f 121/3/2 118/3/2 122/3/2
f 120/3/2 121/3/2 124/3/2
f 124/3/2 121/3/2 125/3/2
f 123/3/2 124/3/2 127/3/2
f 125/3/2 126/3/2 127/3/2
f 124/3/2 125/3/2 127/3/2
f 127/3/2 126/3/2 128/3/2
f 128/3/2 126/3/2 129/3/2
f 129/3/2 126/3/2 130/3/2
f 128/3/2 129/3/2 132/3/2
f 132/3/2 129/3/2 133/3/2
f 131/3/2 132/3/2 135/3/2
f 133/3/2 134/3/2 135/3/2
f 132/3/2 133/3/2 135/3/2
f 135/3/2 134/3/2 136/3/2
f 131/3/2 135/3/2 137/3/2
f 136/3/2 134/3/2 138/3/2
f 131/3/2 137/3/2 139/3/2
f 137/3/2 138/3/2 139/3/2
f 138/3/2 134/3/2 140/3/2
f 139/3/2 138/3/2 140/3/2
f 141/2/2 142/2/2 143/2/2
f 143/2/2 142/2/2 144/2/2
f 145/2/2 146/2/2 147/2/2
f 147/2/2 146/2/2 148/2/2
f 149/2/2 150/2/2 151/2/2
f 151/2/2 150/2/2 152/2/2
f 153/2/2 154/2/2 155/2/2
f 155/2/2 154/2/2 156/2/2
f 157/2/2 158/2/2 159/2/2
f 159/2/2 158/2/2 160/2/2
f 161/2/2 162/2/2 163/2/2
f 163/2/2 162/2/2 164/2/2
f 165/2/2 166/2/2 167/2/2
f 167/2/2 166/2/2 168/2/2
f 169/2/2 170/2/2 171/2/2
f 171/2/2 170/2/2 172/2/2
f 173/2/2 174/2/2 175/2/2
f 175/2/2 174/2/2 176/2/2
f 177/2/2 178/2/2 179/2/2
f 179/2/2 178/2/2 180/2/2
f 181/2/2 182/2/2 183/2/2
f 183/2/2 182/2/2 184/2/2
f 181/2/2 183/2/2 185/2/2
f 184/2/2 182/2/2 186/2/2
f 181/2/2 185/2/2 187/2/2
f 185/2/2 186/2/2 187/2/2
f 186/2/2 182/2/2 188/2/2
f 187/2/2 186/2/2 188/2/2
f 189/2/2 190/2/2 191/2/2
f 191/2/2 190/2/2 192/2/2
f 193/2/2 194/2/2 197/2/2
f 195/2/2 196/2/2 198/2/2
f 193/2/2 197/2/2 199/2/2
f 197/2/2 198/2/2 199/2/2
f 198/2/2 196/2/2 200/2/2
f 199/2/2 198/2/2 200/2/2
f 201/3/2 202/3/2 203/3/2
f 203/3/2 202/3/2 204/3/2
f 205/3/2 206/3/2 207/3/2
f 207/3/2 206/3/2 208/3/2
f 209/3/2 210/3/2 211/3/2
f 211/3/2 210/3/2 212/3/2
f 213/3/2 214/3/2 215/3/2
f 215/3/2 214/3/2 216/3/2
f 217/3/2 218/3/2 219/3/2
f 219/3/2 218/3/2 220/3/2
f 221/3/2 222/3/2 223/3/2
f 223/3/2 222/3/2 224/3/2
f 227/2/3 226/2/3 225/2/3
f 228/2/3 226/2/3 227/2/3
f 231/2/3 230/2/3 229/2/3
f 232/2/3 230/2/3 231/2/3
f 235/2/3 234/2/3 233/2/3
f 236/2/3 234/2/3 235/2/3
f 237/1/3 236/1/3 235/1/3
f 238/2/3 234/2/3 236/2/3
f 238/1/3 236/1/3 237/1/3
f 241/2/3 238/2/3 237/2/3
f 242/2/3 234/2/3 238/2/3
f 242/2/3 238/2/3 241/2/3
f 243/2/3 240/2/3 239/2/3
f 244/2/3 240/2/3 243/2/3
f 247/2/3 246/2/3 245/2/3
f 248/2/3 247/2/3 245/2/3
f 249/2/3 248/2/3 245/2/3
f 250/2/3 248/2/3 249/2/3
f 257/3/3 256/3/3 255/3/3
f 259/3/3 252/3/3 251/3/3
f 260/3/3 252/3/3 259/3/3
f 261/3/3 252/3/3 260/3/3
f 262/3/3 252/3/3 261/3/3
f 263/3/3 254/3/3 253/3/3
f 264/3/3 254/3/3 263/3/3
f 265/3/3 258/3/3 257/3/3
f 265/3/3 257/3/3 255/3/3
f 266/3/3 258/3/3 265/3/3
f 274/3/3 268/3/3 267/3/3
f 275/3/3 272/3/3 271/3/3
f 276/3/3 272/3/3 275/3/3
f 277/3/3 274/3/3 273/3/3
f 278/3/3 268/3/3 274/3/3
f 278/3/3 274/3/3 277/3/3
f 279/3/3 270/3/3 269/3/3
f 280/3/3 270/3/3 279/3/3
f 281/3/3 275/3/3 271/3/3
f 282/3/3 275/3/3 281/3/3
f 287/2/3 286/2/3 285/2/3
f 289/2/3 284/2/3 283/2/3
f 290/2/3 284/2/3 289/2/3
f 291/2/3 288/2/3 287/2/3
f 291/2/3 287/2/3 285/2/3
f 292/2/3 288/2/3 291/2/3
f 296/2/3 288/2/3 292/2/3
f 297/2/3 288/2/3 296/2/3
f 297/2/3 296/2/3 295/2/3
f 298/2/3 288/2/3 297/2/3
f 299/2/3 294/2/3 293/2/3
f 300/2/3 294/2/3 299/2/3
f 301/2/3 297/2/3 295/2/3
f 302/2/3 297/2/3 301/2/3
f 307/3/3 304/3/3 303/3/3
f 308/3/3 304/3/3 307/3/3
f 309/3/3 306/3/3 305/3/3
f 310/3/3 306/3/3 309/3/3
f 315/2/3 312/2/3 311/2/3
f 316/2/3 312/2/3 315/2/3
f 317/2/3 314/2/3 313/2/3
f 318/2/3 314/2/3 317/2/3
f 321/2/3 320/2/3 319/2/3
f 322/2/3 320/2/3 321/2/3
f 329/2/3 324/2/3 323/2/3
f 330/2/3 324/2/3 329/2/3
f 331/3/3 326/3/3 325/3/3
f 332/3/3 326/3/3 331/3/3
f 333/3/3 328/3/3 327/3/3
f 334/3/3 328/3/3 333/3/3
f 337/2/3 336/2/3 335/2/3
f 338/2/3 336/2/3 337/2/3
f 339/2/3 337/2/3 335/2/3
f 341/2/3 339/2/3 335/2/3
f 341/2/3 340/2/3 339/2/3
f 342/2/3 340/2/3 341/2/3
f 343/2/4 344/2/4 345/2/4
f 345/2/4 344/2/4 346/2/4
f 343/2/4 345/2/4 347/2/4
f 343/2/4 347/2/4 349/2/4
f 347/2/4 348/2/4 349/2/4
f 349/2/4 348/2/4 350/2/4
f 351/2/4 352/2/4 353/2/4
f 353/2/4 352/2/4 354/2/4
f 355/2/4 356/2/4 357/2/4
f 357/2/4 356/2/4 358/2/4
f 359/3/4 360/3/4 363/3/4
f 363/3/4 360/3/4 364/3/4
f 361/3/4 362/3/4 365/3/4
f 365/3/4 362/3/4 366/3/4
f 367/2/4 368/2/4 369/2/4
f 369/2/4 368/2/4 370/2/4
f 371/2/4 372/2/4 377/2/4
f 377/2/4 372/2/4 378/2/4
f 373/3/4 374/3/4 379/3/4
f 379/3/4 374/3/4 380/3/4
f 375/3/4 376/3/4 381/3/4
f 381/3/4 376/3/4 382/3/4
f 383/2/4 384/2/4 385/2/4
f 387/2/4 388/2/4 389/2/4
f 383/2/4 385/2/4 391/2/4
f 385/2/4 386/2/4 391/2/4
f 391/2/4 386/2/4 392/2/4
f 389/2/4 390/2/4 393/2/4
f 387/2/4 389/2/4 393/2/4
f 393/2/4 390/2/4 394/2/4
f 383/2/4 391/2/4 395/2/4
f 395/2/4 391/2/4 396/2/4
f 397/2/4 398/2/4 399/2/4
f 394/2/4 390/2/4 402/2/4
f 402/2/4 390/2/4 403/2/4
f 401/2/4 402/2/4 403/2/4
f 403/2/4 390/2/4 404/2/4
f 399/2/4 400/2/4 405/2/4
f 397/2/4 399/2/4 405/2/4
f 405/2/4 400/2/4 406/2/4
f 401/2/4 403/2/4 407/2/4
f 407/2/4 403/2/4 408/2/4
f 397/2/4 405/2/4 409/2/4
f 409/2/4 405/2/4 410/2/4
f 415/3/4 416/3/4 417/3/4
f 411/3/4 412/3/4 419/3/4
f 419/3/4 412/3/4 420/3/4
f 420/3/4 412/3/4 421/3/4
f 421/3/4 412/3/4 422/3/4
f 413/3/4 414/3/4 423/3/4
f 423/3/4 414/3/4 424/3/4
f 417/3/4 418/3/4 425/3/4
f 415/3/4 417/3/4 425/3/4
f 425/3/4 418/3/4 426/3/4
f 427/2/4 428/2/4 429/2/4
f 429/2/4 428/2/4 430/2/4
f 431/3/4 432/3/4 438/3/4
f 435/3/4 436/3/4 439/3/4
f 439/3/4 436/3/4 440/3/4
f 437/3/4 438/3/4 441/3/4
f 438/3/4 432/3/4 442/3/4
f 441/3/4 438/3/4 442/3/4
f 433/3/4 434/3/4 443/3/4
f 443/3/4 434/3/4 444/3/4
f 435/3/4 439/3/4 445/3/4
f 445/3/4 439/3/4 446/3/4
f 447/2/4 448/2/4 449/2/4
f 449/2/4 448/2/4 450/2/4
f 451/2/4 452/2/4 453/2/4
f 453/2/4 452/2/4 454/2/4
f 459/2/5 456/2/5 455/2/5
f 460/2/5 456/2/5 459/2/5
f 461/2/5 458/2/5 457/2/5
f 462/2/5 458/2/5 461/2/5
f 467/2/5 464/2/5 463/2/5
f 468/2/5 464/2/5 467/2/5
f 469/2/5 466/2/5 465/2/5
f 470/2/5 466/2/5 469/2/5
f 471/2/5 467/2/5 463/2/5
f 472/2/5 464/2/5 468/2/5
f 473/2/5 469/2/5 465/2/5
f 474/2/5 466/2/5 470/2/5
f 475/2/5 471/2/5 463/2/5
f 475/2/5 472/2/5 471/2/5
f 476/2/5 464/2/5 472/2/5
f 476/2/5 472/2/5 475/2/5
f 477/2/5 474/2/5 473/2/5
f 477/2/5 473/2/5 465/2/5
f 478/2/5 466/2/5 474/2/5
f 478/2/5 474/2/5 477/2/5
f 483/3/5 480/3/5 479/3/5
f 484/3/5 480/3/5 483/3/5
f 485/3/5 482/3/5 481/3/5
f 486/3/5 482/3/5 485/3/5
f 489/2/5 488/2/5 487/2/5
f 490/2/5 488/2/5 489/2/5
f 493/2/5 492/2/5 491/2/5
f 494/2/5 492/2/5 493/2/5
f 499/3/5 496/3/5 495/3/5
f 500/3/5 496/3/5 499/3/5
f 501/3/5 498/3/5 497/3/5
f 502/3/5 498/3/5 501/3/5
f 505/2/5 504/2/5 503/2/5
f 506/2/5 504/2/5 505/2/5
f 509/2/5 508/2/5 507/2/5
f 510/2/5 508/2/5 509/2/5
f 511/2/5 509/2/5 507/2/5
f 512/2/5 508/2/5 510/2/5
f 513/2/5 511/2/5 507/2/5
f 513/2/5 512/2/5 511/2/5
f 514/2/5 508/2/5 512/2/5
f 514/2/5 512/2/5 513/2/5
f 519/3/5 516/3/5 515/3/5
f 520/3/5 516/3/5 519/3/5
f 521/3/5 518/3/5 517/3/5
f 522/3/5 518/3/5 521/3/5
f 523/3/5 519/3/5 515/3/5
f 526/3/5 518/3/5 522/3/5
f 527/3/5 524/3/5 523/3/5
f 527/3/5 523/3/5 515/3/5
f 528/3/5 524/3/5 527/3/5
f 529/3/5 526/3/5 525/3/5
f 530/3/5 518/3/5 526/3/5
f 530/3/5 526/3/5 529/3/5
f 535/3/5 532/3/5 531/3/5
f 536/3/5 532/3/5 535/3/5
f 537/3/5 534/3/5 533/3/5
f 538/3/5 534/3/5 537/3/5
f 539/3/5 535/3/5 531/3/5
f 542/3/5 534/3/5 538/3/5
f 543/3/5 540/3/5 539/3/5
f 543/3/5 539/3/5 531/3/5
f 544/3/5 540/3/5 543/3/5
f 545/3/5 542/3/5 541/3/5
f 546/3/5 534/3/5 542/3/5
f 546/3/5 542/3/5 545/3/5
f 551/2/5 548/2/5 547/2/5
f 552/2/5 548/2/5 551/2/5
f 553/2/5 550/2/5 549/2/5
f 554/2/5 550/2/5 553/2/5
f 559/2/5 556/2/5 555/2/5
f 560/2/5 556/2/5 559/2/5
f 561/2/5 558/2/5 557/2/5
f 562/2/5 558/2/5 561/2/5
f 567/2/5 564/2/5 563/2/5
f 568/1/5 565/1/5 564/1/5
f 568/2/5 564/2/5 567/2/5
f 569/2/5 566/2/5 565/2/5
f 569/1/5 565/1/5 568/1/5
f 570/2/5 566/2/5 569/2/5
f 571/2/5 567/2/5 563/2/5
f 572/2/5 566/2/5 570/2/5
f 573/2/5 571/2/5 563/2/5
f 573/2/5 572/2/5 571/2/5
f 574/2/5 566/2/5 572/2/5
f 574/2/5 572/2/5 573/2/5
f 575/2/6 576/2/6 579/2/6
f 579/2/6 576/2/6 580/2/6
f 577/2/6 578/2/6 581/2/6
f 581/2/6 578/2/6 582/2/6
f 575/2/6 579/2/6 583/2/6
f 583/2/6 579/2/6 584/2/6
f 580/2/6 576/2/6 585/2/6
f 585/2/6 576/2/6 586/2/6
f 577/2/6 581/2/6 587/2/6
f 587/2/6 581/2/6 588/2/6
f 582/2/6 578/2/6 589/2/6
f 589/2/6 578/2/6 590/2/6
f 591/2/6 592/2/6 595/2/6
f 595/2/6 592/2/6 596/2/6
f 593/2/6 594/2/6 597/2/6
f 597/2/6 594/2/6 598/2/6
f 591/2/6 595/2/6 599/2/6
f 596/2/6 592/2/6 600/2/6
f 593/2/6 597/2/6 601/2/6
f 598/2/6 594/2/6 602/2/6
f 591/2/6 599/2/6 603/2/6
f 599/2/6 600/2/6 603/2/6
f 600/2/6 592/2/6 604/2/6
f 603/2/6 600/2/6 604/2/6
f 601/2/6 602/2/6 605/2/6
f 593/2/6 601/2/6 605/2/6
f 602/2/6 594/2/6 606/2/6
f 605/2/6 602/2/6 606/2/6
f 607/2/6 608/2/6 611/2/6
f 611/2/6 608/2/6 612/2/6
f 609/2/6 610/2/6 613/2/6
f 613/2/6 610/2/6 614/2/6
f 615/3/6 616/3/6 619/3/6
f 619/3/6 616/3/6 620/3/6
f 617/3/6 618/3/6 621/3/6
f 621/3/6 618/3/6 622/3/6
f 615/3/6 619/3/6 623/3/6
f 622/3/6 618/3/6 626/3/6
f 623/3/6 624/3/6 627/3/6
f 615/3/6 623/3/6 627/3/6
f 627/3/6 624/3/6 628/3/6
f 625/3/6 626/3/6 629/3/6
f 626/3/6 618/3/6 630/3/6
f 629/3/6 626/3/6 630/3/6
f 631/3/6 632/3/6 635/3/6
f 635/3/6 632/3/6 636/3/6
f 633/3/6 634/3/6 637/3/6
f 637/3/6 634/3/6 638/3/6
f 631/3/6 635/3/6 639/3/6
f 638/3/6 634/3/6 642/3/6
f 639/3/6 640/3/6 643/3/6
f 631/3/6 639/3/6 643/3/6
f 643/3/6 640/3/6 644/3/6
f 641/3/6 642/3/6 645/3/6
f 642/3/6 634/3/6 646/3/6
f 645/3/6 642/3/6 646/3/6
f 647/2/6 648/2/6 651/2/6
f 651/2/6 648/2/6 652/2/6
f 649/2/6 650/2/6 653/2/6
f 653/2/6 650/2/6 654/2/6
f 655/3/6 656/3/6 659/3/6
f 659/3/6 656/3/6 660/3/6
f 657/3/6 658/3/6 661/3/6
f 661/3/6 658/3/6 662/3/6
f 663/3/6 664/3/6 667/3/6
f 667/3/6 664/3/6 668/3/6
f 665/3/6 666/3/6 669/3/6
f 669/3/6 666/3/6 670/3/6
f 671/2/6 672/2/6 673/2/6
f 673/2/6 672/2/6 674/2/6
f 671/2/6 673/2/6 675/2/6
f 674/2/6 672/2/6 676/2/6
f 671/2/6 675/2/6 677/2/6
f 675/2/6 676/2/6 677/2/6
f 676/2/6 672/2/6 678/2/6
f 677/2/6 676/2/6 678/2/6
f 679/2/6 680/2/6 681/2/6
f 681/2/6 680/2/6 682/2/6
