# MagicaVoxel @ Ephtracy

# material
mtllib tree3.mtl
usemtl palette

# normals
vn -1 0 0
vn 1 0 0
vn 0 0 1
vn 0 0 -1
vn 0 -1 0
vn 0 1 0

# texcoords
vt 0.369141 0.5
vt 0.896484 0.5

# verts
v -57 57 27
v -57 57 -0
v -57 85 27
v -57 85 -0
v -42 70 -4
v -42 70 -31
v -42 98 -4
v -42 98 -31
v -37 46 8
v -37 46 2
v -37 57 8
v -37 57 2
v -25 32 -0
v -25 32 -7
v -25 46 2
v -25 46 -0
v -25 51 2
v -25 51 -7
v -17 55 -8
v -17 55 -21
v -17 62 -8
v -17 62 -16
v -17 70 -16
v -17 70 -21
v -15 0 -0
v -15 0 -17
v -15 12 -10
v -15 12 -17
v -15 32 -0
v -15 32 -7
v -15 40 -0
v -15 40 -7
v -15 54 7
v -15 54 -0
v -15 55 -8
v -15 55 -10
v -15 61 12
v -15 61 7
v -15 62 -3
v -15 62 -8
v -15 67 12
v -15 67 -3
v -13 0 4
v -13 0 -0
v -13 10 4
v -13 10 1
v -13 17 1
v -13 17 -0
v -11 66 31
v -11 66 12
v -11 67 12
v -11 67 4
v -11 94 31
v -11 94 4
v -3 58 3
v -3 58 -2
v -3 58 -10
v -3 58 -24
v -3 62 -2
v -3 62 -10
v -3 86 3
v -3 86 -24
v -31 51 8
v -31 51 2
v -31 57 8
v -31 57 2
v -30 57 27
v -30 57 -0
v -30 85 27
v -30 85 -0
v -19 40 -0
v -19 40 -7
v -19 46 8
v -19 46 -0
v -19 51 8
v -19 51 -7
v -15 70 -4
v -15 70 -16
v -15 70 -21
v -15 70 -31
v -15 77 -16
v -15 77 -21
v -15 98 -4
v -15 98 -31
v -11 55 -10
v -11 55 -21
v -11 62 -10
v -11 62 -16
v -11 77 -16
v -11 77 -21
v -9 62 7
v -9 62 -3
v -9 66 7
v -9 66 4
v -9 67 4
v -9 67 -3
v -7 54 7
v -7 54 -0
v -7 61 7
v -7 62 7
v -7 62 -0
v -5 0 4
v -5 0 -2
v -5 0 -9
v -5 0 -17
v -5 7 -2
v -5 7 -9
v -5 10 4
v -5 10 1
v -5 12 -10
v -5 12 -17
v -5 17 1
v -5 17 -0
v -5 55 -2
v -5 55 -10
v -5 62 -0
v -5 62 -2
v -1 0 -2
v -1 0 -9
v -1 7 -2
v -1 7 -9
v 0 61 12
v 0 61 7
v 0 66 12
v 0 66 7
v 7 55 -2
v 7 55 -10
v 7 58 -2
v 7 58 -10
v 16 66 31
v 16 66 4
v 16 94 31
v 16 94 4
v 24 58 3
v 24 58 -24
v 24 86 3
v 24 86 -24
v -11 66 31
v -11 94 31
v 16 66 31
v 16 94 31
v -57 57 27
v -57 85 27
v -30 57 27
v -30 85 27
v -15 61 12
v -15 67 12
v -11 66 12
v -11 67 12
v 0 61 12
v 0 66 12
v -37 46 8
v -37 57 8
v -31 51 8
v -31 57 8
v -19 46 8
v -19 51 8
v -15 54 7
v -15 61 7
v -7 54 7
v -7 61 7
v -13 0 4
v -13 10 4
v -5 0 4
v -5 10 4
v -3 58 3
v -3 86 3
v 24 58 3
v 24 86 3
v -13 10 1
v -13 17 1
v -5 10 1
v -5 17 1
v -25 32 -0
v -25 46 -0
v -19 40 -0
v -19 46 -0
v -15 0 -0
v -15 32 -0
v -15 40 -0
v -15 54 -0
v -13 0 -0
v -13 17 -0
v -7 54 -0
v -7 62 -0
v -5 17 -0
v -5 62 -0
v -5 0 -2
v -5 7 -2
v -5 55 -2
v -5 62 -2
v -3 58 -2
v -3 62 -2
v -1 0 -2
v -1 7 -2
v 7 55 -2
v 7 58 -2
v -42 70 -4
v -42 98 -4
v -15 70 -4
v -15 98 -4
v -17 55 -8
v -17 62 -8
v -15 55 -8
v -15 62 -8
v -17 62 -16
v -17 70 -16
v -15 70 -16
v -15 77 -16
v -11 62 -16
v -11 77 -16
v -9 62 7
v -9 66 7
v -7 61 7
v -7 62 7
v 0 61 7
v 0 66 7
v -11 67 4
v -11 94 4
v -9 66 4
v -9 67 4
v 16 66 4
v 16 94 4
v -37 46 2
v -37 57 2
v -31 51 2
v -31 57 2
v -25 46 2
v -25 51 2
v -57 57 -0
v -57 85 -0
v -30 57 -0
v -30 85 -0
v -15 62 -3
v -15 67 -3
v -9 62 -3
v -9 67 -3
v -25 32 -7
v -25 51 -7
v -19 40 -7
v -19 51 -7
v -15 32 -7
v -15 40 -7
v -5 0 -9
v -5 7 -9
v -1 0 -9
v -1 7 -9
v -15 12 -10
v -15 55 -10
v -11 55 -10
v -11 62 -10
v -5 12 -10
v -5 55 -10
v -3 58 -10
v -3 62 -10
v 7 55 -10
v 7 58 -10
v -15 0 -17
v -15 12 -17
v -5 0 -17
v -5 12 -17
v -17 55 -21
v -17 70 -21
v -15 70 -21
v -15 77 -21
v -11 55 -21
v -11 77 -21
v -3 58 -24
v -3 86 -24
v 24 58 -24
v 24 86 -24
v -42 70 -31
v -42 98 -31
v -15 70 -31
v -15 98 -31
v -13 0 4
v -5 0 4
v -15 0 -0
v -13 0 -0
v -5 0 -2
v -1 0 -2
v -5 0 -9
v -1 0 -9
v -15 0 -17
v -5 0 -17
v -25 32 -0
v -15 32 -0
v -25 32 -7
v -15 32 -7
v -37 46 8
v -19 46 8
v -37 46 2
v -25 46 2
v -25 46 -0
v -19 46 -0
v -15 54 7
v -7 54 7
v -15 54 -0
v -7 54 -0
v -5 55 -2
v 7 55 -2
v -17 55 -8
v -15 55 -8
v -15 55 -10
v -11 55 -10
v -5 55 -10
v 7 55 -10
v -17 55 -21
v -11 55 -21
v -57 57 27
v -30 57 27
v -37 57 8
v -31 57 8
v -37 57 2
v -31 57 2
v -57 57 -0
v -30 57 -0
v -3 58 3
v 24 58 3
v -3 58 -2
v 7 58 -2
v -3 58 -10
v 7 58 -10
v -3 58 -24
v 24 58 -24
v -15 61 12
v 0 61 12
v -15 61 7
v -7 61 7
v 0 61 7
v -11 66 31
v 16 66 31
v -11 66 12
v 0 66 12
v -9 66 7
v 0 66 7
v -9 66 4
v 16 66 4
v -42 70 -4
v -15 70 -4
v -17 70 -16
v -15 70 -16
v -17 70 -21
v -15 70 -21
v -42 70 -31
v -15 70 -31
v -5 7 -2
v -1 7 -2
v -5 7 -9
v -1 7 -9
v -13 10 4
v -5 10 4
v -13 10 1
v -5 10 1
v -15 12 -10
v -5 12 -10
v -15 12 -17
v -5 12 -17
v -13 17 1
v -5 17 1
v -13 17 -0
v -5 17 -0
v -19 40 -0
v -15 40 -0
v -19 40 -7
v -15 40 -7
v -31 51 8
v -19 51 8
v -31 51 2
v -25 51 2
v -25 51 -7
v -19 51 -7
v -9 62 7
v -7 62 7
v -7 62 -0
v -5 62 -0
v -5 62 -2
v -3 62 -2
v -15 62 -3
v -9 62 -3
v -17 62 -8
v -15 62 -8
v -11 62 -10
v -3 62 -10
v -17 62 -16
v -11 62 -16
v -15 67 12
v -11 67 12
v -11 67 4
v -9 67 4
v -15 67 -3
v -9 67 -3
v -15 77 -16
v -11 77 -16
v -15 77 -21
v -11 77 -21
v -57 85 27
v -30 85 27
v -57 85 -0
v -30 85 -0
v -3 86 3
v 24 86 3
v -3 86 -24
v 24 86 -24
v -11 94 31
v 16 94 31
v -11 94 4
v 16 94 4
v -42 98 -4
v -15 98 -4
v -42 98 -31
v -15 98 -31

# faces
f 3/2/1 2/2/1 1/2/1
f 4/2/1 2/2/1 3/2/1
f 7/2/1 6/2/1 5/2/1
f 8/2/1 6/2/1 7/2/1
f 11/1/1 10/1/1 9/1/1
f 12/1/1 10/1/1 11/1/1
f 16/1/1 14/1/1 13/1/1
f 17/1/1 16/1/1 15/1/1
f 18/1/1 14/1/1 16/1/1
f 18/1/1 16/1/1 17/1/1
f 21/1/1 20/1/1 19/1/1
f 22/1/1 20/1/1 21/1/1
f 23/1/1 20/1/1 22/1/1
f 24/1/1 20/1/1 23/1/1
f 27/1/1 26/1/1 25/1/1
f 28/1/1 26/1/1 27/1/1
f 29/1/1 27/1/1 25/1/1
f 30/1/1 27/1/1 29/1/1
f 32/1/1 27/1/1 30/1/1
f 34/1/1 32/1/1 31/1/1
f 35/1/1 27/1/1 32/1/1
f 35/1/1 34/1/1 33/1/1
f 35/1/1 32/1/1 34/1/1
f 36/1/1 27/1/1 35/1/1
f 38/1/1 35/1/1 33/1/1
f 39/1/1 35/1/1 38/1/1
f 39/1/1 38/1/1 37/1/1
f 40/1/1 35/1/1 39/1/1
f 41/1/1 39/1/1 37/1/1
f 42/1/1 39/1/1 41/1/1
f 45/1/1 44/1/1 43/1/1
f 46/1/1 44/1/1 45/1/1
f 47/1/1 44/1/1 46/1/1
f 48/1/1 44/1/1 47/1/1
f 51/2/1 50/2/1 49/2/1
f 53/2/1 51/2/1 49/2/1
f 53/2/1 52/2/1 51/2/1
f 54/2/1 52/2/1 53/2/1
f 59/2/1 56/2/1 55/2/1
f 60/2/1 58/2/1 57/2/1
f 61/2/1 59/2/1 55/2/1
f 61/2/1 60/2/1 59/2/1
f 62/2/1 58/2/1 60/2/1
f 62/2/1 60/2/1 61/2/1
f 63/1/2 64/1/2 65/1/2
f 65/1/2 64/1/2 66/1/2
f 67/2/2 68/2/2 69/2/2
f 69/2/2 68/2/2 70/2/2
f 71/1/2 72/1/2 74/1/2
f 73/1/2 74/1/2 75/1/2
f 74/1/2 72/1/2 76/1/2
f 75/1/2 74/1/2 76/1/2
f 77/2/2 78/2/2 81/2/2
f 79/2/2 80/2/2 82/2/2
f 77/2/2 81/2/2 83/2/2
f 81/2/2 82/2/2 83/2/2
f 82/2/2 80/2/2 84/2/2
f 83/2/2 82/2/2 84/2/2
f 85/1/2 86/1/2 87/1/2
f 87/1/2 86/1/2 88/1/2
f 88/1/2 86/1/2 89/1/2
f 89/1/2 86/1/2 90/1/2
f 91/1/2 92/1/2 93/1/2
f 93/1/2 92/1/2 94/1/2
f 94/1/2 92/1/2 95/1/2
f 95/1/2 92/1/2 96/1/2
f 97/1/2 98/1/2 99/1/2
f 99/1/2 98/1/2 100/1/2
f 100/1/2 98/1/2 101/1/2
f 102/1/2 103/1/2 106/1/2
f 104/1/2 105/1/2 107/1/2
f 102/1/2 106/1/2 108/1/2
f 106/1/2 107/1/2 108/1/2
f 108/1/2 107/1/2 109/1/2
f 107/1/2 105/1/2 110/1/2
f 109/1/2 107/1/2 110/1/2
f 110/1/2 105/1/2 111/1/2
f 109/1/2 110/1/2 112/1/2
f 112/1/2 110/1/2 113/1/2
f 113/1/2 110/1/2 114/1/2
f 114/1/2 110/1/2 115/1/2
f 113/1/2 114/1/2 116/1/2
f 116/1/2 114/1/2 117/1/2
f 118/1/2 119/1/2 120/1/2
f 120/1/2 119/1/2 121/1/2
f 122/1/2 123/1/2 124/1/2
f 124/1/2 123/1/2 125/1/2
f 126/1/2 127/1/2 128/1/2
f 128/1/2 127/1/2 129/1/2
f 130/2/2 131/2/2 132/2/2
f 132/2/2 131/2/2 133/2/2
f 134/2/2 135/2/2 136/2/2
f 136/2/2 135/2/2 137/2/2
f 140/2/3 139/2/3 138/2/3
f 141/2/3 139/2/3 140/2/3
f 144/2/3 143/2/3 142/2/3
f 145/2/3 143/2/3 144/2/3
f 148/1/3 147/1/3 146/1/3
f 149/1/3 147/1/3 148/1/3
f 150/1/3 148/1/3 146/1/3
f 151/1/3 148/1/3 150/1/3
f 154/1/3 153/1/3 152/1/3
f 155/1/3 153/1/3 154/1/3
f 156/1/3 154/1/3 152/1/3
f 157/1/3 154/1/3 156/1/3
f 160/1/3 159/1/3 158/1/3
f 161/1/3 159/1/3 160/1/3
f 164/1/3 163/1/3 162/1/3
f 165/1/3 163/1/3 164/1/3
f 168/2/3 167/2/3 166/2/3
f 169/2/3 167/2/3 168/2/3
f 172/1/3 171/1/3 170/1/3
f 173/1/3 171/1/3 172/1/3
f 176/1/3 175/1/3 174/1/3
f 177/1/3 175/1/3 176/1/3
f 179/1/3 176/1/3 174/1/3
f 180/1/3 176/1/3 179/1/3
f 182/1/3 180/1/3 179/1/3
f 182/1/3 181/1/3 180/1/3
f 182/1/3 179/1/3 178/1/3
f 183/1/3 181/1/3 182/1/3
f 184/1/3 181/1/3 183/1/3
f 186/1/3 184/1/3 183/1/3
f 186/1/3 185/1/3 184/1/3
f 187/1/3 185/1/3 186/1/3
f 192/1/3 191/1/3 190/1/3
f 193/1/3 191/1/3 192/1/3
f 194/1/3 189/1/3 188/1/3
f 195/1/3 189/1/3 194/1/3
f 196/1/3 192/1/3 190/1/3
f 197/1/3 192/1/3 196/1/3
f 200/2/3 199/2/3 198/2/3
f 201/2/3 199/2/3 200/2/3
f 204/1/3 203/1/3 202/1/3
f 205/1/3 203/1/3 204/1/3
f 208/1/3 207/1/3 206/1/3
f 210/1/3 208/1/3 206/1/3
f 210/1/3 209/1/3 208/1/3
f 211/1/3 209/1/3 210/1/3
f 212/1/4 213/1/4 215/1/4
f 214/1/4 215/1/4 216/1/4
f 215/1/4 213/1/4 217/1/4
f 216/1/4 215/1/4 217/1/4
f 218/2/4 219/2/4 221/2/4
f 220/2/4 221/2/4 222/2/4
f 221/2/4 219/2/4 223/2/4
f 222/2/4 221/2/4 223/2/4
f 224/1/4 225/1/4 226/1/4
f 226/1/4 225/1/4 227/1/4
f 224/1/4 226/1/4 228/1/4
f 228/1/4 226/1/4 229/1/4
f 230/2/4 231/2/4 232/2/4
f 232/2/4 231/2/4 233/2/4
f 234/1/4 235/1/4 236/1/4
f 236/1/4 235/1/4 237/1/4
f 238/1/4 239/1/4 240/1/4
f 240/1/4 239/1/4 241/1/4
f 238/1/4 240/1/4 242/1/4
f 242/1/4 240/1/4 243/1/4
f 244/1/4 245/1/4 246/1/4
f 246/1/4 245/1/4 247/1/4
f 248/1/4 249/1/4 250/1/4
f 248/1/4 250/1/4 252/1/4
f 250/1/4 251/1/4 252/1/4
f 252/1/4 251/1/4 253/1/4
f 253/1/4 251/1/4 254/1/4
f 254/1/4 251/1/4 255/1/4
f 253/1/4 254/1/4 256/1/4
f 256/1/4 254/1/4 257/1/4
f 258/1/4 259/1/4 260/1/4
f 260/1/4 259/1/4 261/1/4
f 262/1/4 263/1/4 264/1/4
f 262/1/4 264/1/4 266/1/4
f 264/1/4 265/1/4 266/1/4
f 266/1/4 265/1/4 267/1/4
f 268/2/4 269/2/4 270/2/4
f 270/2/4 269/2/4 271/2/4
f 272/2/4 273/2/4 274/2/4
f 274/2/4 273/2/4 275/2/4
f 279/1/5 277/1/5 276/1/5
f 280/1/5 277/1/5 279/1/5
f 280/1/5 279/1/5 278/1/5
f 282/1/5 280/1/5 278/1/5
f 282/1/5 281/1/5 280/1/5
f 283/1/5 281/1/5 282/1/5
f 284/1/5 282/1/5 278/1/5
f 285/1/5 282/1/5 284/1/5
f 288/1/5 287/1/5 286/1/5
f 289/1/5 287/1/5 288/1/5
f 292/1/5 291/1/5 290/1/5
f 293/1/5 291/1/5 292/1/5
f 294/1/5 291/1/5 293/1/5
f 295/1/5 291/1/5 294/1/5
f 298/1/5 297/1/5 296/1/5
f 299/1/5 297/1/5 298/1/5
f 304/1/5 303/1/5 302/1/5
f 306/1/5 301/1/5 300/1/5
f 307/1/5 301/1/5 306/1/5
f 308/1/5 305/1/5 304/1/5
f 308/1/5 304/1/5 302/1/5
f 309/1/5 305/1/5 308/1/5
f 312/2/5 311/2/5 310/2/5
f 313/2/5 311/2/5 312/2/5
f 314/2/5 312/2/5 310/2/5
f 315/2/5 311/2/5 313/2/5
f 316/2/5 314/2/5 310/2/5
f 316/2/5 315/2/5 314/2/5
f 317/2/5 311/2/5 315/2/5
f 317/2/5 315/2/5 316/2/5
f 320/2/5 319/2/5 318/2/5
f 321/2/5 319/2/5 320/2/5
f 323/2/5 319/2/5 321/2/5
f 324/2/5 323/2/5 322/2/5
f 325/2/5 319/2/5 323/2/5
f 325/2/5 323/2/5 324/2/5
f 328/1/5 327/1/5 326/1/5
f 329/1/5 327/1/5 328/1/5
f 330/1/5 327/1/5 329/1/5
f 333/2/5 332/2/5 331/2/5
f 334/2/5 332/2/5 333/2/5
f 336/2/5 332/2/5 334/2/5
f 337/2/5 336/2/5 335/2/5
f 338/2/5 332/2/5 336/2/5
f 338/2/5 336/2/5 337/2/5
f 341/2/5 340/2/5 339/2/5
f 342/2/5 340/2/5 341/2/5
f 343/2/5 341/2/5 339/2/5
f 345/2/5 343/2/5 339/2/5
f 345/2/5 344/2/5 343/2/5
f 346/2/5 344/2/5 345/2/5
f 347/1/6 348/1/6 349/1/6
f 349/1/6 348/1/6 350/1/6
f 351/1/6 352/1/6 353/1/6
f 353/1/6 352/1/6 354/1/6
f 355/1/6 356/1/6 357/1/6
f 357/1/6 356/1/6 358/1/6
f 359/1/6 360/1/6 361/1/6
f 361/1/6 360/1/6 362/1/6
f 363/1/6 364/1/6 365/1/6
f 365/1/6 364/1/6 366/1/6
f 367/1/6 368/1/6 369/1/6
f 369/1/6 368/1/6 370/1/6
f 370/1/6 368/1/6 371/1/6
f 371/1/6 368/1/6 372/1/6
f 373/1/6 374/1/6 375/1/6
f 375/1/6 376/1/6 377/1/6
f 373/1/6 375/1/6 380/1/6
f 377/1/6 378/1/6 380/1/6
f 375/1/6 377/1/6 380/1/6
f 379/1/6 380/1/6 382/1/6
f 382/1/6 380/1/6 383/1/6
f 381/1/6 382/1/6 383/1/6
f 380/1/6 378/1/6 384/1/6
f 383/1/6 380/1/6 384/1/6
f 381/1/6 383/1/6 385/1/6
f 385/1/6 383/1/6 386/1/6
f 387/1/6 388/1/6 389/1/6
f 387/1/6 389/1/6 391/1/6
f 389/1/6 390/1/6 391/1/6
f 391/1/6 390/1/6 392/1/6
f 393/1/6 394/1/6 395/1/6
f 395/1/6 394/1/6 396/1/6
f 397/2/6 398/2/6 399/2/6
f 399/2/6 398/2/6 400/2/6
f 401/2/6 402/2/6 403/2/6
f 403/2/6 402/2/6 404/2/6
f 405/2/6 406/2/6 407/2/6
f 407/2/6 406/2/6 408/2/6
f 409/2/6 410/2/6 411/2/6
f 411/2/6 410/2/6 412/2/6
